solid OpenSCAD_Model
  facet normal 0 0 -1
    outer loop
      vertex -10.5 0 0
      vertex -10.3707 1.64256 0
      vertex -10.3707 -1.64256 0
    endloop
  endfacet
  facet normal 0 0 -1
    outer loop
      vertex -10.3707 -1.64256 0
      vertex -10.3707 1.64256 0
      vertex -9.98609 3.24468 0
    endloop
  endfacet
  facet normal 0 0 -1
    outer loop
      vertex -10.3707 -1.64256 0
      vertex -9.98609 3.24468 0
      vertex -9.35557 4.7669 0
    endloop
  endfacet
  facet normal 0 0 -1
    outer loop
      vertex -10.3707 -1.64256 0
      vertex -9.35557 4.7669 0
      vertex -8.49468 6.17174 0
    endloop
  endfacet
  facet normal 0 0 -1
    outer loop
      vertex -8.46456 4.31291 0
      vertex -8.49468 6.17174 0
      vertex -7.42462 7.42462 0
    endloop
  endfacet
  facet normal 0 0 -1
    outer loop
      vertex -7.68566 5.58396 0
      vertex -7.42462 7.42462 0
      vertex -6.17174 8.49468 0
    endloop
  endfacet
  facet normal 0 0 -1
    outer loop
      vertex -6.71751 6.71751 0
      vertex -6.17174 8.49468 0
      vertex -4.7669 9.35557 0
    endloop
  endfacet
  facet normal 0 0 -1
    outer loop
      vertex -4.31291 8.46456 0
      vertex -4.7669 9.35557 0
      vertex -3.24468 9.98609 0
    endloop
  endfacet
  facet normal 0 0 -1
    outer loop
      vertex -2.93566 9.03504 0
      vertex -3.24468 9.98609 0
      vertex -1.64256 10.3707 0
    endloop
  endfacet
  facet normal 0 0 -1
    outer loop
      vertex -1.48613 9.38304 0
      vertex -1.64256 10.3707 0
      vertex 0 10.5 0
    endloop
  endfacet
  facet normal 0 0 -1
    outer loop
      vertex 0 9.5 0
      vertex 0 10.5 0
      vertex 1.64256 10.3707 0
    endloop
  endfacet
  facet normal 0 0 -1
    outer loop
      vertex 1.48613 9.38304 0
      vertex 1.64256 10.3707 0
      vertex 3.24468 9.98609 0
    endloop
  endfacet
  facet normal 0 0 -1
    outer loop
      vertex 2.93566 9.03504 0
      vertex 3.24468 9.98609 0
      vertex 4.7669 9.35557 0
    endloop
  endfacet
  facet normal 0 0 -1
    outer loop
      vertex 4.31291 8.46456 0
      vertex 4.7669 9.35557 0
      vertex 6.17174 8.49468 0
    endloop
  endfacet
  facet normal 0 0 -1
    outer loop
      vertex 5.58396 7.68566 0
      vertex 6.17174 8.49468 0
      vertex 7.42462 7.42462 0
    endloop
  endfacet
  facet normal 0 0 -1
    outer loop
      vertex 6.71751 6.71751 0
      vertex 7.42462 7.42462 0
      vertex 8.49468 6.17174 0
    endloop
  endfacet
  facet normal 0 0 -1
    outer loop
      vertex 7.68566 5.58396 0
      vertex 8.49468 6.17174 0
      vertex 9.35557 4.7669 0
    endloop
  endfacet
  facet normal 0 0 -1
    outer loop
      vertex 8.46456 4.31291 0
      vertex 9.35557 4.7669 0
      vertex 9.98609 3.24468 0
    endloop
  endfacet
  facet normal 0 0 -1
    outer loop
      vertex 9.03504 2.93566 0
      vertex 9.98609 3.24468 0
      vertex 10.3707 1.64256 0
    endloop
  endfacet
  facet normal 0 0 -1
    outer loop
      vertex 9.5 0 0
      vertex 10.3707 1.64256 0
      vertex 10.5 0 0
    endloop
  endfacet
  facet normal 0 0 -1
    outer loop
      vertex 9.38304 -1.48613 0
      vertex 10.5 0 0
      vertex 10.3707 -1.64256 0
    endloop
  endfacet
  facet normal 0 0 -1
    outer loop
      vertex 9.03504 -2.93566 0
      vertex 10.3707 -1.64256 0
      vertex 9.98609 -3.24468 0
    endloop
  endfacet
  facet normal 0 0 -1
    outer loop
      vertex 8.46456 -4.31291 0
      vertex 9.98609 -3.24468 0
      vertex 9.35557 -4.7669 0
    endloop
  endfacet
  facet normal 0 0 -1
    outer loop
      vertex 7.68566 -5.58396 0
      vertex 9.35557 -4.7669 0
      vertex 8.49468 -6.17174 0
    endloop
  endfacet
  facet normal 0 0 -1
    outer loop
      vertex 6.71751 -6.71751 0
      vertex 8.49468 -6.17174 0
      vertex 7.42462 -7.42462 0
    endloop
  endfacet
  facet normal 0 0 -1
    outer loop
      vertex 5.58396 -7.68566 0
      vertex 7.42462 -7.42462 0
      vertex 6.17174 -8.49468 0
    endloop
  endfacet
  facet normal 0 0 -1
    outer loop
      vertex 4.31291 -8.46456 0
      vertex 6.17174 -8.49468 0
      vertex 4.7669 -9.35557 0
    endloop
  endfacet
  facet normal 0 0 -1
    outer loop
      vertex 2.93566 -9.03504 0
      vertex 4.7669 -9.35557 0
      vertex 3.24468 -9.98609 0
    endloop
  endfacet
  facet normal 0 0 -1
    outer loop
      vertex 1.48613 -9.38304 0
      vertex 3.24468 -9.98609 0
      vertex 1.64256 -10.3707 0
    endloop
  endfacet
  facet normal 0 0 -1
    outer loop
      vertex 0 -9.5 0
      vertex 1.64256 -10.3707 0
      vertex 0 -10.5 0
    endloop
  endfacet
  facet normal 0 0 -1
    outer loop
      vertex -2.93566 -9.03504 0
      vertex 0 -10.5 0
      vertex -1.64256 -10.3707 0
    endloop
  endfacet
  facet normal 0 0 -1
    outer loop
      vertex -4.31291 -8.46456 0
      vertex -1.64256 -10.3707 0
      vertex -3.24468 -9.98609 0
    endloop
  endfacet
  facet normal 0 0 -1
    outer loop
      vertex -5.58396 -7.68566 0
      vertex -3.24468 -9.98609 0
      vertex -4.7669 -9.35557 0
    endloop
  endfacet
  facet normal 0 0 -1
    outer loop
      vertex -7.68566 -5.58396 0
      vertex -4.7669 -9.35557 0
      vertex -6.17174 -8.49468 0
    endloop
  endfacet
  facet normal 0 0 -1
    outer loop
      vertex -10.3707 -1.64256 0
      vertex -6.17174 -8.49468 0
      vertex -7.42462 -7.42462 0
    endloop
  endfacet
  facet normal 0 0 -1
    outer loop
      vertex -10.3707 -1.64256 0
      vertex -7.42462 -7.42462 0
      vertex -8.49468 -6.17174 0
    endloop
  endfacet
  facet normal 0 0 -1
    outer loop
      vertex -10.3707 -1.64256 0
      vertex -8.49468 -6.17174 0
      vertex -9.35557 -4.7669 0
    endloop
  endfacet
  facet normal 0 0 -1
    outer loop
      vertex -10.3707 -1.64256 0
      vertex -9.35557 -4.7669 0
      vertex -9.98609 -3.24468 0
    endloop
  endfacet
  facet normal 0 0 -1
    outer loop
      vertex -9.38304 -1.48613 0
      vertex -10.3707 -1.64256 0
      vertex -9.5 0 0
    endloop
  endfacet
  facet normal 0 0 -1
    outer loop
      vertex 2.93566 -9.03504 0
      vertex 3.24468 -9.98609 0
      vertex 1.48613 -9.38304 0
    endloop
  endfacet
  facet normal 0 0 -1
    outer loop
      vertex -9.03504 -2.93566 0
      vertex -10.3707 -1.64256 0
      vertex -9.38304 -1.48613 0
    endloop
  endfacet
  facet normal 0 0 -1
    outer loop
      vertex -8.46456 -4.31291 0
      vertex -10.3707 -1.64256 0
      vertex -9.03504 -2.93566 0
    endloop
  endfacet
  facet normal 0 0 -1
    outer loop
      vertex -5.58396 -7.68566 0
      vertex -4.7669 -9.35557 0
      vertex -6.71751 -6.71751 0
    endloop
  endfacet
  facet normal 0 0 -1
    outer loop
      vertex -10.3707 -1.64256 0
      vertex -8.46456 -4.31291 0
      vertex -6.17174 -8.49468 0
    endloop
  endfacet
  facet normal 0 0 -1
    outer loop
      vertex -6.71751 -6.71751 0
      vertex -4.7669 -9.35557 0
      vertex -7.68566 -5.58396 0
    endloop
  endfacet
  facet normal 0 0 -1
    outer loop
      vertex -8.46456 -4.31291 0
      vertex -7.68566 -5.58396 0
      vertex -6.17174 -8.49468 0
    endloop
  endfacet
  facet normal 0 0 -1
    outer loop
      vertex -1.48613 -9.38304 0
      vertex 0 -10.5 0
      vertex -2.93566 -9.03504 0
    endloop
  endfacet
  facet normal 0 0 -1
    outer loop
      vertex 0 -9.5 0
      vertex 0 -10.5 0
      vertex -1.48613 -9.38304 0
    endloop
  endfacet
  facet normal 0 0 -1
    outer loop
      vertex -2.93566 -9.03504 0
      vertex -1.64256 -10.3707 0
      vertex -4.31291 -8.46456 0
    endloop
  endfacet
  facet normal 0 0 -1
    outer loop
      vertex -4.31291 -8.46456 0
      vertex -3.24468 -9.98609 0
      vertex -5.58396 -7.68566 0
    endloop
  endfacet
  facet normal 0 0 -1
    outer loop
      vertex 9.38304 1.48613 0
      vertex 10.3707 1.64256 0
      vertex 9.5 0 0
    endloop
  endfacet
  facet normal 0 0 -1
    outer loop
      vertex 8.46456 4.31291 0
      vertex 9.98609 3.24468 0
      vertex 9.03504 2.93566 0
    endloop
  endfacet
  facet normal 0 0 -1
    outer loop
      vertex 9.03504 2.93566 0
      vertex 10.3707 1.64256 0
      vertex 9.38304 1.48613 0
    endloop
  endfacet
  facet normal 0 0 -1
    outer loop
      vertex 9.5 0 0
      vertex 10.5 0 0
      vertex 9.38304 -1.48613 0
    endloop
  endfacet
  facet normal 0 0 -1
    outer loop
      vertex 9.38304 -1.48613 0
      vertex 10.3707 -1.64256 0
      vertex 9.03504 -2.93566 0
    endloop
  endfacet
  facet normal 0 0 -1
    outer loop
      vertex 9.03504 -2.93566 0
      vertex 9.98609 -3.24468 0
      vertex 8.46456 -4.31291 0
    endloop
  endfacet
  facet normal 0 0 -1
    outer loop
      vertex 8.46456 -4.31291 0
      vertex 9.35557 -4.7669 0
      vertex 7.68566 -5.58396 0
    endloop
  endfacet
  facet normal 0 0 -1
    outer loop
      vertex 7.68566 -5.58396 0
      vertex 8.49468 -6.17174 0
      vertex 6.71751 -6.71751 0
    endloop
  endfacet
  facet normal 0 0 -1
    outer loop
      vertex 6.71751 -6.71751 0
      vertex 7.42462 -7.42462 0
      vertex 5.58396 -7.68566 0
    endloop
  endfacet
  facet normal 0 0 -1
    outer loop
      vertex 5.58396 -7.68566 0
      vertex 6.17174 -8.49468 0
      vertex 4.31291 -8.46456 0
    endloop
  endfacet
  facet normal 0 0 -1
    outer loop
      vertex 4.31291 -8.46456 0
      vertex 4.7669 -9.35557 0
      vertex 2.93566 -9.03504 0
    endloop
  endfacet
  facet normal 0 0 -1
    outer loop
      vertex -5.58396 7.68566 0
      vertex -4.7669 9.35557 0
      vertex -4.31291 8.46456 0
    endloop
  endfacet
  facet normal 0 0 -1
    outer loop
      vertex -6.71751 6.71751 0
      vertex -4.7669 9.35557 0
      vertex -5.58396 7.68566 0
    endloop
  endfacet
  facet normal 0 0 -1
    outer loop
      vertex -4.31291 8.46456 0
      vertex -3.24468 9.98609 0
      vertex -2.93566 9.03504 0
    endloop
  endfacet
  facet normal 0 0 -1
    outer loop
      vertex -2.93566 9.03504 0
      vertex -1.64256 10.3707 0
      vertex -1.48613 9.38304 0
    endloop
  endfacet
  facet normal 0 0 -1
    outer loop
      vertex -9.03504 2.93566 0
      vertex -8.49468 6.17174 0
      vertex -8.46456 4.31291 0
    endloop
  endfacet
  facet normal 0 0 -1
    outer loop
      vertex -10.3707 -1.64256 0
      vertex -8.49468 6.17174 0
      vertex -9.03504 2.93566 0
    endloop
  endfacet
  facet normal 0 0 -1
    outer loop
      vertex -10.3707 -1.64256 0
      vertex -9.03504 2.93566 0
      vertex -9.38304 1.48613 0
    endloop
  endfacet
  facet normal 0 0 -1
    outer loop
      vertex -1.48613 9.38304 0
      vertex 0 10.5 0
      vertex 0 9.5 0
    endloop
  endfacet
  facet normal 0 0 -1
    outer loop
      vertex -9.5 0 0
      vertex -10.3707 -1.64256 0
      vertex -9.38304 1.48613 0
    endloop
  endfacet
  facet normal 0 0 -1
    outer loop
      vertex -8.46456 4.31291 0
      vertex -7.42462 7.42462 0
      vertex -7.68566 5.58396 0
    endloop
  endfacet
  facet normal 0 0 -1
    outer loop
      vertex -7.68566 5.58396 0
      vertex -6.17174 8.49468 0
      vertex -6.71751 6.71751 0
    endloop
  endfacet
  facet normal 0 0 -1
    outer loop
      vertex 0 9.5 0
      vertex 1.64256 10.3707 0
      vertex 1.48613 9.38304 0
    endloop
  endfacet
  facet normal 0 0 -1
    outer loop
      vertex 1.48613 9.38304 0
      vertex 3.24468 9.98609 0
      vertex 2.93566 9.03504 0
    endloop
  endfacet
  facet normal 0 0 -1
    outer loop
      vertex 2.93566 9.03504 0
      vertex 4.7669 9.35557 0
      vertex 4.31291 8.46456 0
    endloop
  endfacet
  facet normal 0 0 -1
    outer loop
      vertex 4.31291 8.46456 0
      vertex 6.17174 8.49468 0
      vertex 5.58396 7.68566 0
    endloop
  endfacet
  facet normal 0 0 -1
    outer loop
      vertex 5.58396 7.68566 0
      vertex 7.42462 7.42462 0
      vertex 6.71751 6.71751 0
    endloop
  endfacet
  facet normal 0 0 -1
    outer loop
      vertex 6.71751 6.71751 0
      vertex 8.49468 6.17174 0
      vertex 7.68566 5.58396 0
    endloop
  endfacet
  facet normal 0 0 -1
    outer loop
      vertex 7.68566 5.58396 0
      vertex 9.35557 4.7669 0
      vertex 8.46456 4.31291 0
    endloop
  endfacet
  facet normal 0 0 -1
    outer loop
      vertex 1.48613 -9.38304 0
      vertex 1.64256 -10.3707 0
      vertex 0 -9.5 0
    endloop
  endfacet
  facet normal -0.996917 0.0784588 0
    outer loop
      vertex -10.5 0 0
      vertex -10.5 0 55
      vertex -10.3707 1.64256 0
    endloop
  endfacet
  facet normal -0.996917 0.0784588 0
    outer loop
      vertex -10.3707 1.64256 0
      vertex -10.5 0 55
      vertex -10.3707 1.64256 55
    endloop
  endfacet
  facet normal -0.996917 -0.0784588 0
    outer loop
      vertex -10.5 0 0
      vertex -10.3707 -1.64256 0
      vertex -10.5 0 55
    endloop
  endfacet
  facet normal -0.996917 -0.0784588 0
    outer loop
      vertex -10.5 0 55
      vertex -10.3707 -1.64256 0
      vertex -10.3707 -1.64256 55
    endloop
  endfacet
  facet normal -0.97237 -0.233446 0
    outer loop
      vertex -10.3707 -1.64256 0
      vertex -9.98609 -3.24468 0
      vertex -10.3707 -1.64256 55
    endloop
  endfacet
  facet normal -0.97237 -0.233446 0
    outer loop
      vertex -10.3707 -1.64256 55
      vertex -9.98609 -3.24468 0
      vertex -9.98609 -3.24468 55
    endloop
  endfacet
  facet normal -0.92388 -0.382683 0
    outer loop
      vertex -9.98609 -3.24468 0
      vertex -9.35557 -4.7669 0
      vertex -9.98609 -3.24468 55
    endloop
  endfacet
  facet normal -0.92388 -0.382683 0
    outer loop
      vertex -9.98609 -3.24468 55
      vertex -9.35557 -4.7669 0
      vertex -9.35557 -4.7669 55
    endloop
  endfacet
  facet normal -0.85264 -0.522499 0
    outer loop
      vertex -9.35557 -4.7669 0
      vertex -8.49468 -6.17174 0
      vertex -9.35557 -4.7669 55
    endloop
  endfacet
  facet normal -0.85264 -0.522499 0
    outer loop
      vertex -9.35557 -4.7669 55
      vertex -8.49468 -6.17174 0
      vertex -8.49468 -6.17174 55
    endloop
  endfacet
  facet normal -0.760406 -0.649448 0
    outer loop
      vertex -8.49468 -6.17174 0
      vertex -7.42462 -7.42462 0
      vertex -8.49468 -6.17174 55
    endloop
  endfacet
  facet normal -0.760406 -0.649448 0
    outer loop
      vertex -8.49468 -6.17174 55
      vertex -7.42462 -7.42462 0
      vertex -7.42462 -7.42462 55
    endloop
  endfacet
  facet normal -0.649448 -0.760406 0
    outer loop
      vertex -7.42462 -7.42462 55
      vertex -7.42462 -7.42462 0
      vertex -6.17174 -8.49468 0
    endloop
  endfacet
  facet normal -0.649448 -0.760406 0
    outer loop
      vertex -6.17174 -8.49468 55
      vertex -7.42462 -7.42462 55
      vertex -6.17174 -8.49468 0
    endloop
  endfacet
  facet normal -0.522499 -0.85264 0
    outer loop
      vertex -6.17174 -8.49468 55
      vertex -6.17174 -8.49468 0
      vertex -4.7669 -9.35557 0
    endloop
  endfacet
  facet normal -0.522499 -0.85264 0
    outer loop
      vertex -4.7669 -9.35557 55
      vertex -6.17174 -8.49468 55
      vertex -4.7669 -9.35557 0
    endloop
  endfacet
  facet normal -0.382683 -0.92388 0
    outer loop
      vertex -4.7669 -9.35557 55
      vertex -4.7669 -9.35557 0
      vertex -3.24468 -9.98609 0
    endloop
  endfacet
  facet normal -0.382683 -0.92388 0
    outer loop
      vertex -3.24468 -9.98609 55
      vertex -4.7669 -9.35557 55
      vertex -3.24468 -9.98609 0
    endloop
  endfacet
  facet normal -0.233446 -0.97237 0
    outer loop
      vertex -3.24468 -9.98609 55
      vertex -3.24468 -9.98609 0
      vertex -1.64256 -10.3707 0
    endloop
  endfacet
  facet normal -0.233446 -0.97237 0
    outer loop
      vertex -1.64256 -10.3707 55
      vertex -3.24468 -9.98609 55
      vertex -1.64256 -10.3707 0
    endloop
  endfacet
  facet normal -0.0784588 -0.996917 0
    outer loop
      vertex -1.64256 -10.3707 55
      vertex -1.64256 -10.3707 0
      vertex 0 -10.5 0
    endloop
  endfacet
  facet normal -0.0784588 -0.996917 0
    outer loop
      vertex 0 -10.5 55
      vertex -1.64256 -10.3707 55
      vertex 0 -10.5 0
    endloop
  endfacet
  facet normal 0.0784588 -0.996917 0
    outer loop
      vertex 0 -10.5 55
      vertex 0 -10.5 0
      vertex 1.64256 -10.3707 0
    endloop
  endfacet
  facet normal 0.0784588 -0.996917 0
    outer loop
      vertex 1.64256 -10.3707 55
      vertex 0 -10.5 55
      vertex 1.64256 -10.3707 0
    endloop
  endfacet
  facet normal 0.233446 -0.97237 0
    outer loop
      vertex 1.64256 -10.3707 55
      vertex 1.64256 -10.3707 0
      vertex 3.24468 -9.98609 0
    endloop
  endfacet
  facet normal 0.233446 -0.97237 0
    outer loop
      vertex 3.24468 -9.98609 55
      vertex 1.64256 -10.3707 55
      vertex 3.24468 -9.98609 0
    endloop
  endfacet
  facet normal 0.382683 -0.92388 0
    outer loop
      vertex 3.24468 -9.98609 55
      vertex 3.24468 -9.98609 0
      vertex 4.7669 -9.35557 0
    endloop
  endfacet
  facet normal 0.382683 -0.92388 0
    outer loop
      vertex 4.7669 -9.35557 55
      vertex 3.24468 -9.98609 55
      vertex 4.7669 -9.35557 0
    endloop
  endfacet
  facet normal 0.522499 -0.85264 0
    outer loop
      vertex 4.7669 -9.35557 55
      vertex 4.7669 -9.35557 0
      vertex 6.17174 -8.49468 0
    endloop
  endfacet
  facet normal 0.522499 -0.85264 0
    outer loop
      vertex 6.17174 -8.49468 55
      vertex 4.7669 -9.35557 55
      vertex 6.17174 -8.49468 0
    endloop
  endfacet
  facet normal 0.649448 -0.760406 0
    outer loop
      vertex 6.17174 -8.49468 55
      vertex 6.17174 -8.49468 0
      vertex 7.42462 -7.42462 0
    endloop
  endfacet
  facet normal 0.649448 -0.760406 0
    outer loop
      vertex 7.42462 -7.42462 55
      vertex 6.17174 -8.49468 55
      vertex 7.42462 -7.42462 0
    endloop
  endfacet
  facet normal 0.760406 -0.649448 0
    outer loop
      vertex 7.42462 -7.42462 55
      vertex 7.42462 -7.42462 0
      vertex 8.49468 -6.17174 0
    endloop
  endfacet
  facet normal 0.760406 -0.649448 0
    outer loop
      vertex 8.49468 -6.17174 55
      vertex 7.42462 -7.42462 55
      vertex 8.49468 -6.17174 0
    endloop
  endfacet
  facet normal 0.85264 -0.522499 0
    outer loop
      vertex 8.49468 -6.17174 55
      vertex 8.49468 -6.17174 0
      vertex 9.35557 -4.7669 0
    endloop
  endfacet
  facet normal 0.85264 -0.522499 0
    outer loop
      vertex 9.35557 -4.7669 55
      vertex 8.49468 -6.17174 55
      vertex 9.35557 -4.7669 0
    endloop
  endfacet
  facet normal 0.92388 -0.382683 0
    outer loop
      vertex 9.35557 -4.7669 55
      vertex 9.35557 -4.7669 0
      vertex 9.98609 -3.24468 0
    endloop
  endfacet
  facet normal 0.92388 -0.382683 0
    outer loop
      vertex 9.98609 -3.24468 55
      vertex 9.35557 -4.7669 55
      vertex 9.98609 -3.24468 0
    endloop
  endfacet
  facet normal 0.97237 -0.233446 0
    outer loop
      vertex 9.98609 -3.24468 55
      vertex 9.98609 -3.24468 0
      vertex 10.3707 -1.64256 0
    endloop
  endfacet
  facet normal 0.97237 -0.233446 0
    outer loop
      vertex 10.3707 -1.64256 55
      vertex 9.98609 -3.24468 55
      vertex 10.3707 -1.64256 0
    endloop
  endfacet
  facet normal 0.996917 -0.0784588 0
    outer loop
      vertex 10.3707 -1.64256 55
      vertex 10.3707 -1.64256 0
      vertex 10.5 0 0
    endloop
  endfacet
  facet normal 0.996917 -0.0784588 0
    outer loop
      vertex 10.5 0 55
      vertex 10.3707 -1.64256 55
      vertex 10.5 0 0
    endloop
  endfacet
  facet normal 0.996917 0.0784588 0
    outer loop
      vertex 10.5 0 0
      vertex 10.3707 1.64256 0
      vertex 10.3707 1.64256 55
    endloop
  endfacet
  facet normal 0.996917 0.0784588 0
    outer loop
      vertex 10.5 0 55
      vertex 10.5 0 0
      vertex 10.3707 1.64256 55
    endloop
  endfacet
  facet normal 0.97237 0.233446 0
    outer loop
      vertex 10.3707 1.64256 0
      vertex 9.98609 3.24468 0
      vertex 9.98609 3.24468 55
    endloop
  endfacet
  facet normal 0.97237 0.233446 0
    outer loop
      vertex 10.3707 1.64256 55
      vertex 10.3707 1.64256 0
      vertex 9.98609 3.24468 55
    endloop
  endfacet
  facet normal 0.92388 0.382683 0
    outer loop
      vertex 9.98609 3.24468 0
      vertex 9.35557 4.7669 0
      vertex 9.35557 4.7669 55
    endloop
  endfacet
  facet normal 0.92388 0.382683 0
    outer loop
      vertex 9.98609 3.24468 55
      vertex 9.98609 3.24468 0
      vertex 9.35557 4.7669 55
    endloop
  endfacet
  facet normal 0.85264 0.522499 0
    outer loop
      vertex 9.35557 4.7669 0
      vertex 8.49468 6.17174 0
      vertex 8.49468 6.17174 55
    endloop
  endfacet
  facet normal 0.85264 0.522499 0
    outer loop
      vertex 9.35557 4.7669 55
      vertex 9.35557 4.7669 0
      vertex 8.49468 6.17174 55
    endloop
  endfacet
  facet normal 0.760406 0.649448 0
    outer loop
      vertex 8.49468 6.17174 0
      vertex 7.42462 7.42462 0
      vertex 7.42462 7.42462 55
    endloop
  endfacet
  facet normal 0.760406 0.649448 0
    outer loop
      vertex 8.49468 6.17174 55
      vertex 8.49468 6.17174 0
      vertex 7.42462 7.42462 55
    endloop
  endfacet
  facet normal 0.649448 0.760406 0
    outer loop
      vertex 6.17174 8.49468 0
      vertex 6.17174 8.49468 55
      vertex 7.42462 7.42462 0
    endloop
  endfacet
  facet normal 0.649448 0.760406 0
    outer loop
      vertex 7.42462 7.42462 0
      vertex 6.17174 8.49468 55
      vertex 7.42462 7.42462 55
    endloop
  endfacet
  facet normal 0.522499 0.85264 0
    outer loop
      vertex 4.7669 9.35557 0
      vertex 4.7669 9.35557 55
      vertex 6.17174 8.49468 0
    endloop
  endfacet
  facet normal 0.522499 0.85264 0
    outer loop
      vertex 6.17174 8.49468 0
      vertex 4.7669 9.35557 55
      vertex 6.17174 8.49468 55
    endloop
  endfacet
  facet normal 0.382683 0.92388 0
    outer loop
      vertex 3.24468 9.98609 0
      vertex 3.24468 9.98609 55
      vertex 4.7669 9.35557 0
    endloop
  endfacet
  facet normal 0.382683 0.92388 0
    outer loop
      vertex 4.7669 9.35557 0
      vertex 3.24468 9.98609 55
      vertex 4.7669 9.35557 55
    endloop
  endfacet
  facet normal 0.233446 0.97237 0
    outer loop
      vertex 1.64256 10.3707 0
      vertex 1.64256 10.3707 55
      vertex 3.24468 9.98609 0
    endloop
  endfacet
  facet normal 0.233446 0.97237 0
    outer loop
      vertex 3.24468 9.98609 0
      vertex 1.64256 10.3707 55
      vertex 3.24468 9.98609 55
    endloop
  endfacet
  facet normal 0.0784588 0.996917 0
    outer loop
      vertex 0 10.5 0
      vertex 0 10.5 55
      vertex 1.64256 10.3707 0
    endloop
  endfacet
  facet normal 0.0784588 0.996917 0
    outer loop
      vertex 1.64256 10.3707 0
      vertex 0 10.5 55
      vertex 1.64256 10.3707 55
    endloop
  endfacet
  facet normal -0.0784588 0.996917 0
    outer loop
      vertex -1.64256 10.3707 0
      vertex -1.64256 10.3707 55
      vertex 0 10.5 0
    endloop
  endfacet
  facet normal -0.0784588 0.996917 0
    outer loop
      vertex 0 10.5 0
      vertex -1.64256 10.3707 55
      vertex 0 10.5 55
    endloop
  endfacet
  facet normal -0.233446 0.97237 0
    outer loop
      vertex -3.24468 9.98609 0
      vertex -3.24468 9.98609 55
      vertex -1.64256 10.3707 0
    endloop
  endfacet
  facet normal -0.233446 0.97237 0
    outer loop
      vertex -1.64256 10.3707 0
      vertex -3.24468 9.98609 55
      vertex -1.64256 10.3707 55
    endloop
  endfacet
  facet normal -0.382683 0.92388 0
    outer loop
      vertex -4.7669 9.35557 0
      vertex -4.7669 9.35557 55
      vertex -3.24468 9.98609 0
    endloop
  endfacet
  facet normal -0.382683 0.92388 0
    outer loop
      vertex -3.24468 9.98609 0
      vertex -4.7669 9.35557 55
      vertex -3.24468 9.98609 55
    endloop
  endfacet
  facet normal -0.522499 0.85264 0
    outer loop
      vertex -6.17174 8.49468 0
      vertex -6.17174 8.49468 55
      vertex -4.7669 9.35557 0
    endloop
  endfacet
  facet normal -0.522499 0.85264 0
    outer loop
      vertex -4.7669 9.35557 0
      vertex -6.17174 8.49468 55
      vertex -4.7669 9.35557 55
    endloop
  endfacet
  facet normal -0.649448 0.760406 0
    outer loop
      vertex -7.42462 7.42462 0
      vertex -7.42462 7.42462 55
      vertex -6.17174 8.49468 0
    endloop
  endfacet
  facet normal -0.649448 0.760406 0
    outer loop
      vertex -6.17174 8.49468 0
      vertex -7.42462 7.42462 55
      vertex -6.17174 8.49468 55
    endloop
  endfacet
  facet normal -0.760406 0.649448 0
    outer loop
      vertex -8.49468 6.17174 0
      vertex -8.49468 6.17174 55
      vertex -7.42462 7.42462 0
    endloop
  endfacet
  facet normal -0.760406 0.649448 0
    outer loop
      vertex -7.42462 7.42462 0
      vertex -8.49468 6.17174 55
      vertex -7.42462 7.42462 55
    endloop
  endfacet
  facet normal -0.85264 0.522499 0
    outer loop
      vertex -9.35557 4.7669 0
      vertex -9.35557 4.7669 55
      vertex -8.49468 6.17174 0
    endloop
  endfacet
  facet normal -0.85264 0.522499 0
    outer loop
      vertex -8.49468 6.17174 0
      vertex -9.35557 4.7669 55
      vertex -8.49468 6.17174 55
    endloop
  endfacet
  facet normal -0.92388 0.382683 0
    outer loop
      vertex -9.98609 3.24468 0
      vertex -9.98609 3.24468 55
      vertex -9.35557 4.7669 0
    endloop
  endfacet
  facet normal -0.92388 0.382683 0
    outer loop
      vertex -9.35557 4.7669 0
      vertex -9.98609 3.24468 55
      vertex -9.35557 4.7669 55
    endloop
  endfacet
  facet normal -0.97237 0.233446 0
    outer loop
      vertex -10.3707 1.64256 0
      vertex -10.3707 1.64256 55
      vertex -9.98609 3.24468 0
    endloop
  endfacet
  facet normal -0.97237 0.233446 0
    outer loop
      vertex -9.98609 3.24468 0
      vertex -10.3707 1.64256 55
      vertex -9.98609 3.24468 55
    endloop
  endfacet
  facet normal 0.996917 0.0784593 0
    outer loop
      vertex -9.5 0 55
      vertex -9.38304 -1.48613 55
      vertex -9.38304 -1.48613 0
    endloop
  endfacet
  facet normal 0.996917 0.0784593 0
    outer loop
      vertex -9.5 0 0
      vertex -9.5 0 55
      vertex -9.38304 -1.48613 0
    endloop
  endfacet
  facet normal 0.996917 -0.0784593 0
    outer loop
      vertex -9.38304 1.48613 0
      vertex -9.38304 1.48613 55
      vertex -9.5 0 55
    endloop
  endfacet
  facet normal 0.996917 -0.0784593 0
    outer loop
      vertex -9.5 0 0
      vertex -9.38304 1.48613 0
      vertex -9.5 0 55
    endloop
  endfacet
  facet normal 0.97237 -0.233445 0
    outer loop
      vertex -9.03504 2.93566 0
      vertex -9.03504 2.93566 55
      vertex -9.38304 1.48613 55
    endloop
  endfacet
  facet normal 0.97237 -0.233445 0
    outer loop
      vertex -9.38304 1.48613 0
      vertex -9.03504 2.93566 0
      vertex -9.38304 1.48613 55
    endloop
  endfacet
  facet normal 0.92388 -0.382683 0
    outer loop
      vertex -8.46456 4.31291 0
      vertex -8.46456 4.31291 55
      vertex -9.03504 2.93566 55
    endloop
  endfacet
  facet normal 0.92388 -0.382683 0
    outer loop
      vertex -9.03504 2.93566 0
      vertex -8.46456 4.31291 0
      vertex -9.03504 2.93566 55
    endloop
  endfacet
  facet normal 0.85264 -0.522499 0
    outer loop
      vertex -7.68566 5.58396 0
      vertex -7.68566 5.58396 55
      vertex -8.46456 4.31291 55
    endloop
  endfacet
  facet normal 0.85264 -0.522499 0
    outer loop
      vertex -8.46456 4.31291 0
      vertex -7.68566 5.58396 0
      vertex -8.46456 4.31291 55
    endloop
  endfacet
  facet normal 0.760406 -0.649448 0
    outer loop
      vertex -6.71751 6.71751 0
      vertex -6.71751 6.71751 55
      vertex -7.68566 5.58396 55
    endloop
  endfacet
  facet normal 0.760406 -0.649448 0
    outer loop
      vertex -7.68566 5.58396 0
      vertex -6.71751 6.71751 0
      vertex -7.68566 5.58396 55
    endloop
  endfacet
  facet normal 0.649448 -0.760406 0
    outer loop
      vertex -5.58396 7.68566 0
      vertex -5.58396 7.68566 55
      vertex -6.71751 6.71751 55
    endloop
  endfacet
  facet normal 0.649448 -0.760406 0
    outer loop
      vertex -6.71751 6.71751 0
      vertex -5.58396 7.68566 0
      vertex -6.71751 6.71751 55
    endloop
  endfacet
  facet normal 0.522499 -0.85264 0
    outer loop
      vertex -4.31291 8.46456 0
      vertex -4.31291 8.46456 55
      vertex -5.58396 7.68566 55
    endloop
  endfacet
  facet normal 0.522499 -0.85264 0
    outer loop
      vertex -5.58396 7.68566 0
      vertex -4.31291 8.46456 0
      vertex -5.58396 7.68566 55
    endloop
  endfacet
  facet normal 0.382683 -0.92388 0
    outer loop
      vertex -2.93566 9.03504 0
      vertex -2.93566 9.03504 55
      vertex -4.31291 8.46456 55
    endloop
  endfacet
  facet normal 0.382683 -0.92388 0
    outer loop
      vertex -4.31291 8.46456 0
      vertex -2.93566 9.03504 0
      vertex -4.31291 8.46456 55
    endloop
  endfacet
  facet normal 0.233445 -0.97237 0
    outer loop
      vertex -1.48613 9.38304 0
      vertex -1.48613 9.38304 55
      vertex -2.93566 9.03504 55
    endloop
  endfacet
  facet normal 0.233445 -0.97237 0
    outer loop
      vertex -2.93566 9.03504 0
      vertex -1.48613 9.38304 0
      vertex -2.93566 9.03504 55
    endloop
  endfacet
  facet normal 0.0784593 -0.996917 0
    outer loop
      vertex 0 9.5 0
      vertex 0 9.5 55
      vertex -1.48613 9.38304 55
    endloop
  endfacet
  facet normal 0.0784593 -0.996917 0
    outer loop
      vertex -1.48613 9.38304 0
      vertex 0 9.5 0
      vertex -1.48613 9.38304 55
    endloop
  endfacet
  facet normal -0.0784593 -0.996917 0
    outer loop
      vertex 1.48613 9.38304 0
      vertex 1.48613 9.38304 55
      vertex 0 9.5 55
    endloop
  endfacet
  facet normal -0.0784593 -0.996917 0
    outer loop
      vertex 0 9.5 0
      vertex 1.48613 9.38304 0
      vertex 0 9.5 55
    endloop
  endfacet
  facet normal -0.233445 -0.97237 0
    outer loop
      vertex 2.93566 9.03504 0
      vertex 2.93566 9.03504 55
      vertex 1.48613 9.38304 55
    endloop
  endfacet
  facet normal -0.233445 -0.97237 0
    outer loop
      vertex 1.48613 9.38304 0
      vertex 2.93566 9.03504 0
      vertex 1.48613 9.38304 55
    endloop
  endfacet
  facet normal -0.382683 -0.92388 0
    outer loop
      vertex 4.31291 8.46456 0
      vertex 4.31291 8.46456 55
      vertex 2.93566 9.03504 55
    endloop
  endfacet
  facet normal -0.382683 -0.92388 0
    outer loop
      vertex 2.93566 9.03504 0
      vertex 4.31291 8.46456 0
      vertex 2.93566 9.03504 55
    endloop
  endfacet
  facet normal -0.522499 -0.85264 0
    outer loop
      vertex 5.58396 7.68566 0
      vertex 5.58396 7.68566 55
      vertex 4.31291 8.46456 55
    endloop
  endfacet
  facet normal -0.522499 -0.85264 0
    outer loop
      vertex 4.31291 8.46456 0
      vertex 5.58396 7.68566 0
      vertex 4.31291 8.46456 55
    endloop
  endfacet
  facet normal -0.649448 -0.760406 0
    outer loop
      vertex 6.71751 6.71751 0
      vertex 6.71751 6.71751 55
      vertex 5.58396 7.68566 55
    endloop
  endfacet
  facet normal -0.649448 -0.760406 0
    outer loop
      vertex 5.58396 7.68566 0
      vertex 6.71751 6.71751 0
      vertex 5.58396 7.68566 55
    endloop
  endfacet
  facet normal -0.760406 -0.649448 0
    outer loop
      vertex 7.68566 5.58396 55
      vertex 6.71751 6.71751 55
      vertex 7.68566 5.58396 0
    endloop
  endfacet
  facet normal -0.760406 -0.649448 0
    outer loop
      vertex 7.68566 5.58396 0
      vertex 6.71751 6.71751 55
      vertex 6.71751 6.71751 0
    endloop
  endfacet
  facet normal -0.85264 -0.522499 0
    outer loop
      vertex 8.46456 4.31291 55
      vertex 7.68566 5.58396 55
      vertex 8.46456 4.31291 0
    endloop
  endfacet
  facet normal -0.85264 -0.522499 0
    outer loop
      vertex 8.46456 4.31291 0
      vertex 7.68566 5.58396 55
      vertex 7.68566 5.58396 0
    endloop
  endfacet
  facet normal -0.92388 -0.382683 0
    outer loop
      vertex 9.03504 2.93566 55
      vertex 8.46456 4.31291 55
      vertex 9.03504 2.93566 0
    endloop
  endfacet
  facet normal -0.92388 -0.382683 0
    outer loop
      vertex 9.03504 2.93566 0
      vertex 8.46456 4.31291 55
      vertex 8.46456 4.31291 0
    endloop
  endfacet
  facet normal -0.97237 -0.233445 0
    outer loop
      vertex 9.38304 1.48613 55
      vertex 9.03504 2.93566 55
      vertex 9.38304 1.48613 0
    endloop
  endfacet
  facet normal -0.97237 -0.233445 0
    outer loop
      vertex 9.38304 1.48613 0
      vertex 9.03504 2.93566 55
      vertex 9.03504 2.93566 0
    endloop
  endfacet
  facet normal -0.996917 -0.0784593 0
    outer loop
      vertex 9.5 0 55
      vertex 9.38304 1.48613 55
      vertex 9.5 0 0
    endloop
  endfacet
  facet normal -0.996917 -0.0784593 0
    outer loop
      vertex 9.5 0 0
      vertex 9.38304 1.48613 55
      vertex 9.38304 1.48613 0
    endloop
  endfacet
  facet normal -0.996917 0.0784593 0
    outer loop
      vertex 9.5 0 55
      vertex 9.5 0 0
      vertex 9.38304 -1.48613 55
    endloop
  endfacet
  facet normal -0.996917 0.0784593 0
    outer loop
      vertex 9.38304 -1.48613 55
      vertex 9.5 0 0
      vertex 9.38304 -1.48613 0
    endloop
  endfacet
  facet normal -0.97237 0.233445 0
    outer loop
      vertex 9.38304 -1.48613 55
      vertex 9.38304 -1.48613 0
      vertex 9.03504 -2.93566 55
    endloop
  endfacet
  facet normal -0.97237 0.233445 0
    outer loop
      vertex 9.03504 -2.93566 55
      vertex 9.38304 -1.48613 0
      vertex 9.03504 -2.93566 0
    endloop
  endfacet
  facet normal -0.92388 0.382683 0
    outer loop
      vertex 9.03504 -2.93566 55
      vertex 9.03504 -2.93566 0
      vertex 8.46456 -4.31291 55
    endloop
  endfacet
  facet normal -0.92388 0.382683 0
    outer loop
      vertex 8.46456 -4.31291 55
      vertex 9.03504 -2.93566 0
      vertex 8.46456 -4.31291 0
    endloop
  endfacet
  facet normal -0.85264 0.522499 0
    outer loop
      vertex 8.46456 -4.31291 55
      vertex 8.46456 -4.31291 0
      vertex 7.68566 -5.58396 55
    endloop
  endfacet
  facet normal -0.85264 0.522499 0
    outer loop
      vertex 7.68566 -5.58396 55
      vertex 8.46456 -4.31291 0
      vertex 7.68566 -5.58396 0
    endloop
  endfacet
  facet normal -0.760406 0.649448 0
    outer loop
      vertex 7.68566 -5.58396 55
      vertex 7.68566 -5.58396 0
      vertex 6.71751 -6.71751 55
    endloop
  endfacet
  facet normal -0.760406 0.649448 0
    outer loop
      vertex 6.71751 -6.71751 55
      vertex 7.68566 -5.58396 0
      vertex 6.71751 -6.71751 0
    endloop
  endfacet
  facet normal -0.649448 0.760406 0
    outer loop
      vertex 6.71751 -6.71751 55
      vertex 6.71751 -6.71751 0
      vertex 5.58396 -7.68566 55
    endloop
  endfacet
  facet normal -0.649448 0.760406 0
    outer loop
      vertex 5.58396 -7.68566 55
      vertex 6.71751 -6.71751 0
      vertex 5.58396 -7.68566 0
    endloop
  endfacet
  facet normal -0.522499 0.85264 0
    outer loop
      vertex 5.58396 -7.68566 55
      vertex 5.58396 -7.68566 0
      vertex 4.31291 -8.46456 55
    endloop
  endfacet
  facet normal -0.522499 0.85264 0
    outer loop
      vertex 4.31291 -8.46456 55
      vertex 5.58396 -7.68566 0
      vertex 4.31291 -8.46456 0
    endloop
  endfacet
  facet normal -0.382683 0.92388 0
    outer loop
      vertex 4.31291 -8.46456 55
      vertex 4.31291 -8.46456 0
      vertex 2.93566 -9.03504 55
    endloop
  endfacet
  facet normal -0.382683 0.92388 0
    outer loop
      vertex 2.93566 -9.03504 55
      vertex 4.31291 -8.46456 0
      vertex 2.93566 -9.03504 0
    endloop
  endfacet
  facet normal -0.233445 0.97237 0
    outer loop
      vertex 2.93566 -9.03504 55
      vertex 2.93566 -9.03504 0
      vertex 1.48613 -9.38304 55
    endloop
  endfacet
  facet normal -0.233445 0.97237 0
    outer loop
      vertex 1.48613 -9.38304 55
      vertex 2.93566 -9.03504 0
      vertex 1.48613 -9.38304 0
    endloop
  endfacet
  facet normal -0.0784593 0.996917 0
    outer loop
      vertex 1.48613 -9.38304 55
      vertex 1.48613 -9.38304 0
      vertex 0 -9.5 55
    endloop
  endfacet
  facet normal -0.0784593 0.996917 0
    outer loop
      vertex 0 -9.5 55
      vertex 1.48613 -9.38304 0
      vertex 0 -9.5 0
    endloop
  endfacet
  facet normal 0.0784593 0.996917 0
    outer loop
      vertex 0 -9.5 55
      vertex 0 -9.5 0
      vertex -1.48613 -9.38304 55
    endloop
  endfacet
  facet normal 0.0784593 0.996917 0
    outer loop
      vertex -1.48613 -9.38304 55
      vertex 0 -9.5 0
      vertex -1.48613 -9.38304 0
    endloop
  endfacet
  facet normal 0.233445 0.97237 0
    outer loop
      vertex -1.48613 -9.38304 55
      vertex -1.48613 -9.38304 0
      vertex -2.93566 -9.03504 55
    endloop
  endfacet
  facet normal 0.233445 0.97237 0
    outer loop
      vertex -2.93566 -9.03504 55
      vertex -1.48613 -9.38304 0
      vertex -2.93566 -9.03504 0
    endloop
  endfacet
  facet normal 0.382683 0.92388 0
    outer loop
      vertex -2.93566 -9.03504 55
      vertex -2.93566 -9.03504 0
      vertex -4.31291 -8.46456 55
    endloop
  endfacet
  facet normal 0.382683 0.92388 0
    outer loop
      vertex -4.31291 -8.46456 55
      vertex -2.93566 -9.03504 0
      vertex -4.31291 -8.46456 0
    endloop
  endfacet
  facet normal 0.522499 0.85264 0
    outer loop
      vertex -4.31291 -8.46456 55
      vertex -4.31291 -8.46456 0
      vertex -5.58396 -7.68566 55
    endloop
  endfacet
  facet normal 0.522499 0.85264 0
    outer loop
      vertex -5.58396 -7.68566 55
      vertex -4.31291 -8.46456 0
      vertex -5.58396 -7.68566 0
    endloop
  endfacet
  facet normal 0.649448 0.760406 0
    outer loop
      vertex -5.58396 -7.68566 55
      vertex -5.58396 -7.68566 0
      vertex -6.71751 -6.71751 55
    endloop
  endfacet
  facet normal 0.649448 0.760406 0
    outer loop
      vertex -6.71751 -6.71751 55
      vertex -5.58396 -7.68566 0
      vertex -6.71751 -6.71751 0
    endloop
  endfacet
  facet normal 0.760406 0.649448 0
    outer loop
      vertex -7.68566 -5.58396 55
      vertex -6.71751 -6.71751 55
      vertex -6.71751 -6.71751 0
    endloop
  endfacet
  facet normal 0.760406 0.649448 0
    outer loop
      vertex -7.68566 -5.58396 0
      vertex -7.68566 -5.58396 55
      vertex -6.71751 -6.71751 0
    endloop
  endfacet
  facet normal 0.85264 0.522499 0
    outer loop
      vertex -8.46456 -4.31291 55
      vertex -7.68566 -5.58396 55
      vertex -7.68566 -5.58396 0
    endloop
  endfacet
  facet normal 0.85264 0.522499 0
    outer loop
      vertex -8.46456 -4.31291 0
      vertex -8.46456 -4.31291 55
      vertex -7.68566 -5.58396 0
    endloop
  endfacet
  facet normal 0.92388 0.382683 0
    outer loop
      vertex -9.03504 -2.93566 55
      vertex -8.46456 -4.31291 55
      vertex -8.46456 -4.31291 0
    endloop
  endfacet
  facet normal 0.92388 0.382683 0
    outer loop
      vertex -9.03504 -2.93566 0
      vertex -9.03504 -2.93566 55
      vertex -8.46456 -4.31291 0
    endloop
  endfacet
  facet normal 0.97237 0.233445 0
    outer loop
      vertex -9.38304 -1.48613 55
      vertex -9.03504 -2.93566 55
      vertex -9.03504 -2.93566 0
    endloop
  endfacet
  facet normal 0.97237 0.233445 0
    outer loop
      vertex -9.38304 -1.48613 0
      vertex -9.38304 -1.48613 55
      vertex -9.03504 -2.93566 0
    endloop
  endfacet
  facet normal 0 0 1
    outer loop
      vertex -10.3707 1.64256 55
      vertex -10.5 0 55
      vertex -10.3707 -1.64256 55
    endloop
  endfacet
  facet normal 0 0 1
    outer loop
      vertex -9.35557 -4.7669 55
      vertex -10.3707 1.64256 55
      vertex -9.98609 -3.24468 55
    endloop
  endfacet
  facet normal 0 0 1
    outer loop
      vertex -9.98609 -3.24468 55
      vertex -10.3707 1.64256 55
      vertex -10.3707 -1.64256 55
    endloop
  endfacet
  facet normal 0 0 1
    outer loop
      vertex -8.49468 -6.17174 55
      vertex -10.3707 1.64256 55
      vertex -9.35557 -4.7669 55
    endloop
  endfacet
  facet normal 0 0 1
    outer loop
      vertex -9.38304 -1.48613 55
      vertex -10.3707 1.64256 55
      vertex -8.49468 -6.17174 55
    endloop
  endfacet
  facet normal 0 0 1
    outer loop
      vertex -1.48613 9.38304 55
      vertex 0 9.5 55
      vertex 0 10.5 55
    endloop
  endfacet
  facet normal 0 0 1
    outer loop
      vertex -4.31291 8.46456 55
      vertex -2.93566 9.03504 55
      vertex -1.64256 10.3707 55
    endloop
  endfacet
  facet normal 0 0 1
    outer loop
      vertex -7.42462 7.42462 55
      vertex -10.3707 1.64256 55
      vertex -6.17174 8.49468 55
    endloop
  endfacet
  facet normal 0 0 1
    outer loop
      vertex -8.49468 6.17174 55
      vertex -10.3707 1.64256 55
      vertex -7.42462 7.42462 55
    endloop
  endfacet
  facet normal 0 0 1
    outer loop
      vertex -9.35557 4.7669 55
      vertex -10.3707 1.64256 55
      vertex -8.49468 6.17174 55
    endloop
  endfacet
  facet normal 0 0 1
    outer loop
      vertex -9.98609 3.24468 55
      vertex -10.3707 1.64256 55
      vertex -9.35557 4.7669 55
    endloop
  endfacet
  facet normal 0 0 1
    outer loop
      vertex -9.03504 -2.93566 55
      vertex -9.38304 -1.48613 55
      vertex -8.49468 -6.17174 55
    endloop
  endfacet
  facet normal 0 0 1
    outer loop
      vertex 5.58396 -7.68566 55
      vertex 4.31291 -8.46456 55
      vertex 6.17174 -8.49468 55
    endloop
  endfacet
  facet normal 0 0 1
    outer loop
      vertex -6.71751 -6.71751 55
      vertex -7.68566 -5.58396 55
      vertex -6.17174 -8.49468 55
    endloop
  endfacet
  facet normal 0 0 1
    outer loop
      vertex 8.46456 -4.31291 55
      vertex 7.68566 -5.58396 55
      vertex 9.35557 -4.7669 55
    endloop
  endfacet
  facet normal 0 0 1
    outer loop
      vertex 0 9.5 55
      vertex 1.48613 9.38304 55
      vertex 1.64256 10.3707 55
    endloop
  endfacet
  facet normal 0 0 1
    outer loop
      vertex -5.58396 7.68566 55
      vertex -4.31291 8.46456 55
      vertex -3.24468 9.98609 55
    endloop
  endfacet
  facet normal 0 0 1
    outer loop
      vertex -6.17174 8.49468 55
      vertex -10.3707 1.64256 55
      vertex -8.46456 4.31291 55
    endloop
  endfacet
  facet normal 0 0 1
    outer loop
      vertex -6.17174 8.49468 55
      vertex -7.68566 5.58396 55
      vertex -4.7669 9.35557 55
    endloop
  endfacet
  facet normal 0 0 1
    outer loop
      vertex -6.17174 8.49468 55
      vertex -8.46456 4.31291 55
      vertex -7.68566 5.58396 55
    endloop
  endfacet
  facet normal 0 0 1
    outer loop
      vertex -7.68566 5.58396 55
      vertex -6.71751 6.71751 55
      vertex -4.7669 9.35557 55
    endloop
  endfacet
  facet normal 0 0 1
    outer loop
      vertex -4.7669 9.35557 55
      vertex -5.58396 7.68566 55
      vertex -3.24468 9.98609 55
    endloop
  endfacet
  facet normal 0 0 1
    outer loop
      vertex -6.71751 6.71751 55
      vertex -5.58396 7.68566 55
      vertex -4.7669 9.35557 55
    endloop
  endfacet
  facet normal 0 0 1
    outer loop
      vertex -3.24468 9.98609 55
      vertex -4.31291 8.46456 55
      vertex -1.64256 10.3707 55
    endloop
  endfacet
  facet normal 0 0 1
    outer loop
      vertex -1.64256 10.3707 55
      vertex -2.93566 9.03504 55
      vertex 0 10.5 55
    endloop
  endfacet
  facet normal 0 0 1
    outer loop
      vertex -2.93566 9.03504 55
      vertex -1.48613 9.38304 55
      vertex 0 10.5 55
    endloop
  endfacet
  facet normal 0 0 1
    outer loop
      vertex 0 10.5 55
      vertex 0 9.5 55
      vertex 1.64256 10.3707 55
    endloop
  endfacet
  facet normal 0 0 1
    outer loop
      vertex 1.64256 10.3707 55
      vertex 1.48613 9.38304 55
      vertex 3.24468 9.98609 55
    endloop
  endfacet
  facet normal 0 0 1
    outer loop
      vertex -2.93566 -9.03504 55
      vertex -4.31291 -8.46456 55
      vertex -3.24468 -9.98609 55
    endloop
  endfacet
  facet normal 0 0 1
    outer loop
      vertex 3.24468 9.98609 55
      vertex 2.93566 9.03504 55
      vertex 4.7669 9.35557 55
    endloop
  endfacet
  facet normal 0 0 1
    outer loop
      vertex -9.03504 2.93566 55
      vertex -8.46456 4.31291 55
      vertex -10.3707 1.64256 55
    endloop
  endfacet
  facet normal 0 0 1
    outer loop
      vertex 4.7669 9.35557 55
      vertex 4.31291 8.46456 55
      vertex 6.17174 8.49468 55
    endloop
  endfacet
  facet normal 0 0 1
    outer loop
      vertex 6.17174 8.49468 55
      vertex 5.58396 7.68566 55
      vertex 7.42462 7.42462 55
    endloop
  endfacet
  facet normal 0 0 1
    outer loop
      vertex 7.42462 7.42462 55
      vertex 6.71751 6.71751 55
      vertex 8.49468 6.17174 55
    endloop
  endfacet
  facet normal 0 0 1
    outer loop
      vertex 8.49468 6.17174 55
      vertex 7.68566 5.58396 55
      vertex 9.35557 4.7669 55
    endloop
  endfacet
  facet normal 0 0 1
    outer loop
      vertex 9.35557 4.7669 55
      vertex 8.46456 4.31291 55
      vertex 9.98609 3.24468 55
    endloop
  endfacet
  facet normal 0 0 1
    outer loop
      vertex 9.98609 3.24468 55
      vertex 9.03504 2.93566 55
      vertex 10.3707 1.64256 55
    endloop
  endfacet
  facet normal 0 0 1
    outer loop
      vertex 10.3707 1.64256 55
      vertex 9.38304 1.48613 55
      vertex 10.5 0 55
    endloop
  endfacet
  facet normal 0 0 1
    outer loop
      vertex 10.5 0 55
      vertex 9.5 0 55
      vertex 10.3707 -1.64256 55
    endloop
  endfacet
  facet normal 0 0 1
    outer loop
      vertex 9.5 0 55
      vertex 9.38304 -1.48613 55
      vertex 10.3707 -1.64256 55
    endloop
  endfacet
  facet normal 0 0 1
    outer loop
      vertex 10.3707 -1.64256 55
      vertex 9.03504 -2.93566 55
      vertex 9.98609 -3.24468 55
    endloop
  endfacet
  facet normal 0 0 1
    outer loop
      vertex 9.98609 -3.24468 55
      vertex 8.46456 -4.31291 55
      vertex 9.35557 -4.7669 55
    endloop
  endfacet
  facet normal 0 0 1
    outer loop
      vertex 1.48613 9.38304 55
      vertex 2.93566 9.03504 55
      vertex 3.24468 9.98609 55
    endloop
  endfacet
  facet normal 0 0 1
    outer loop
      vertex 9.35557 -4.7669 55
      vertex 7.68566 -5.58396 55
      vertex 8.49468 -6.17174 55
    endloop
  endfacet
  facet normal 0 0 1
    outer loop
      vertex 2.93566 9.03504 55
      vertex 4.31291 8.46456 55
      vertex 4.7669 9.35557 55
    endloop
  endfacet
  facet normal 0 0 1
    outer loop
      vertex 8.49468 -6.17174 55
      vertex 6.71751 -6.71751 55
      vertex 7.42462 -7.42462 55
    endloop
  endfacet
  facet normal 0 0 1
    outer loop
      vertex 4.31291 8.46456 55
      vertex 5.58396 7.68566 55
      vertex 6.17174 8.49468 55
    endloop
  endfacet
  facet normal 0 0 1
    outer loop
      vertex 7.42462 -7.42462 55
      vertex 5.58396 -7.68566 55
      vertex 6.17174 -8.49468 55
    endloop
  endfacet
  facet normal 0 0 1
    outer loop
      vertex 5.58396 7.68566 55
      vertex 6.71751 6.71751 55
      vertex 7.42462 7.42462 55
    endloop
  endfacet
  facet normal 0 0 1
    outer loop
      vertex 6.17174 -8.49468 55
      vertex 4.31291 -8.46456 55
      vertex 4.7669 -9.35557 55
    endloop
  endfacet
  facet normal 0 0 1
    outer loop
      vertex 6.71751 6.71751 55
      vertex 7.68566 5.58396 55
      vertex 8.49468 6.17174 55
    endloop
  endfacet
  facet normal 0 0 1
    outer loop
      vertex 4.7669 -9.35557 55
      vertex 2.93566 -9.03504 55
      vertex 3.24468 -9.98609 55
    endloop
  endfacet
  facet normal 0 0 1
    outer loop
      vertex 7.68566 5.58396 55
      vertex 8.46456 4.31291 55
      vertex 9.35557 4.7669 55
    endloop
  endfacet
  facet normal 0 0 1
    outer loop
      vertex 3.24468 -9.98609 55
      vertex 1.48613 -9.38304 55
      vertex 1.64256 -10.3707 55
    endloop
  endfacet
  facet normal 0 0 1
    outer loop
      vertex 8.46456 4.31291 55
      vertex 9.03504 2.93566 55
      vertex 9.98609 3.24468 55
    endloop
  endfacet
  facet normal 0 0 1
    outer loop
      vertex 1.64256 -10.3707 55
      vertex 0 -9.5 55
      vertex 0 -10.5 55
    endloop
  endfacet
  facet normal 0 0 1
    outer loop
      vertex 9.03504 2.93566 55
      vertex 9.38304 1.48613 55
      vertex 10.3707 1.64256 55
    endloop
  endfacet
  facet normal 0 0 1
    outer loop
      vertex 0 -10.5 55
      vertex -1.48613 -9.38304 55
      vertex -1.64256 -10.3707 55
    endloop
  endfacet
  facet normal 0 0 1
    outer loop
      vertex 9.38304 1.48613 55
      vertex 9.5 0 55
      vertex 10.5 0 55
    endloop
  endfacet
  facet normal 0 0 1
    outer loop
      vertex -1.64256 -10.3707 55
      vertex -2.93566 -9.03504 55
      vertex -3.24468 -9.98609 55
    endloop
  endfacet
  facet normal 0 0 1
    outer loop
      vertex 9.38304 -1.48613 55
      vertex 9.03504 -2.93566 55
      vertex 10.3707 -1.64256 55
    endloop
  endfacet
  facet normal 0 0 1
    outer loop
      vertex -3.24468 -9.98609 55
      vertex -4.31291 -8.46456 55
      vertex -4.7669 -9.35557 55
    endloop
  endfacet
  facet normal 0 0 1
    outer loop
      vertex -4.31291 -8.46456 55
      vertex -5.58396 -7.68566 55
      vertex -4.7669 -9.35557 55
    endloop
  endfacet
  facet normal 0 0 1
    outer loop
      vertex -4.7669 -9.35557 55
      vertex -6.71751 -6.71751 55
      vertex -6.17174 -8.49468 55
    endloop
  endfacet
  facet normal 0 0 1
    outer loop
      vertex 7.68566 -5.58396 55
      vertex 6.71751 -6.71751 55
      vertex 8.49468 -6.17174 55
    endloop
  endfacet
  facet normal 0 0 1
    outer loop
      vertex -6.17174 -8.49468 55
      vertex -7.68566 -5.58396 55
      vertex -7.42462 -7.42462 55
    endloop
  endfacet
  facet normal 0 0 1
    outer loop
      vertex 6.71751 -6.71751 55
      vertex 5.58396 -7.68566 55
      vertex 7.42462 -7.42462 55
    endloop
  endfacet
  facet normal 0 0 1
    outer loop
      vertex -7.42462 -7.42462 55
      vertex -8.46456 -4.31291 55
      vertex -8.49468 -6.17174 55
    endloop
  endfacet
  facet normal 0 0 1
    outer loop
      vertex -8.46456 -4.31291 55
      vertex -9.03504 -2.93566 55
      vertex -8.49468 -6.17174 55
    endloop
  endfacet
  facet normal 0 0 1
    outer loop
      vertex -9.38304 -1.48613 55
      vertex -9.5 0 55
      vertex -10.3707 1.64256 55
    endloop
  endfacet
  facet normal 0 0 1
    outer loop
      vertex 4.31291 -8.46456 55
      vertex 2.93566 -9.03504 55
      vertex 4.7669 -9.35557 55
    endloop
  endfacet
  facet normal 0 0 1
    outer loop
      vertex 2.93566 -9.03504 55
      vertex 1.48613 -9.38304 55
      vertex 3.24468 -9.98609 55
    endloop
  endfacet
  facet normal 0 0 1
    outer loop
      vertex 1.48613 -9.38304 55
      vertex 0 -9.5 55
      vertex 1.64256 -10.3707 55
    endloop
  endfacet
  facet normal 0 0 1
    outer loop
      vertex 0 -9.5 55
      vertex -1.48613 -9.38304 55
      vertex 0 -10.5 55
    endloop
  endfacet
  facet normal 0 0 1
    outer loop
      vertex -1.48613 -9.38304 55
      vertex -2.93566 -9.03504 55
      vertex -1.64256 -10.3707 55
    endloop
  endfacet
  facet normal 0 0 1
    outer loop
      vertex -7.68566 -5.58396 55
      vertex -8.46456 -4.31291 55
      vertex -7.42462 -7.42462 55
    endloop
  endfacet
  facet normal 0 0 1
    outer loop
      vertex -5.58396 -7.68566 55
      vertex -6.71751 -6.71751 55
      vertex -4.7669 -9.35557 55
    endloop
  endfacet
  facet normal 0 0 1
    outer loop
      vertex -9.5 0 55
      vertex -9.38304 1.48613 55
      vertex -10.3707 1.64256 55
    endloop
  endfacet
  facet normal 0 0 1
    outer loop
      vertex 9.03504 -2.93566 55
      vertex 8.46456 -4.31291 55
      vertex 9.98609 -3.24468 55
    endloop
  endfacet
  facet normal 0 0 1
    outer loop
      vertex -9.38304 1.48613 55
      vertex -9.03504 2.93566 55
      vertex -10.3707 1.64256 55
    endloop
  endfacet
endsolid OpenSCAD_Model
